STARTFONT 2.1
FONT -FontForge-Source Sans Pro-Bold-R-Normal-SansPro--33-240-100-100-P-167-ISO10646-1
SIZE 24 100 100
FONTBOUNDINGBOX 30 35 -2 -8
COMMENT "Generated by fontforge, http://fontforge.sourceforge.net"
COMMENT "(c) 2010 - 2018 Adobe Systems Incorporated (http://www.adobe.com/), with Reserved Font Name `Source'."
STARTPROPERTIES 40
FOUNDRY "FontForge"
FAMILY_NAME "Source Sans Pro"
WEIGHT_NAME "Bold"
SLANT "R"
SETWIDTH_NAME "Normal"
ADD_STYLE_NAME "SansPro"
PIXEL_SIZE 33
POINT_SIZE 240
RESOLUTION_X 100
RESOLUTION_Y 100
SPACING "P"
AVERAGE_WIDTH 167
CHARSET_REGISTRY "ISO10646"
CHARSET_ENCODING "1"
FONTNAME_REGISTRY ""
CHARSET_COLLECTIONS "ISO10646-1"
FONT_NAME "SourceSansPro-Bold"
FACE_NAME "Source Sans Pro Bold"
COPYRIGHT "(c) 2010 - 2018 Adobe Systems Incorporated (http://www.adobe.com/), with Reserved Font Name `Source'."
FONT_VERSION "2.045;hotconv 1.0.109;makeotfexe 2.5.65596"
FONT_ASCENT 25
FONT_DESCENT 8
UNDERLINE_POSITION -2
UNDERLINE_THICKNESS 2
X_HEIGHT 15
CAP_HEIGHT 21
RAW_ASCENT 750
RAW_DESCENT 250
NORM_SPACE 7
RELATIVE_WEIGHT 70
RELATIVE_SETWIDTH 50
SUPERSCRIPT_X 0
SUPERSCRIPT_Y 11
SUPERSCRIPT_SIZE 19
SUBSCRIPT_X 0
SUBSCRIPT_Y 2
SUBSCRIPT_SIZE 19
FIGURE_WIDTH 17
AVG_LOWERCASE_WIDTH 167
AVG_UPPERCASE_WIDTH 196
ENDPROPERTIES
CHARS 95
STARTCHAR space
ENCODING 32
SWIDTH 200 0
DWIDTH 7 0
BBX 1 1 0 0
BITMAP
00
ENDCHAR
STARTCHAR exclam
ENCODING 33
SWIDTH 340 0
DWIDTH 11 0
BBX 6 22 3 0
BITMAP
F8
F8
F8
F8
F8
F8
F8
78
78
78
70
70
70
70
00
00
70
F8
F8
FC
F8
F8
ENDCHAR
STARTCHAR quotedbl
ENCODING 34
SWIDTH 537 0
DWIDTH 18 0
BBX 12 11 3 12
BITMAP
F1F0
F1F0
F1F0
F1F0
F1F0
F0F0
F0F0
F0F0
F0F0
F0E0
E0E0
ENDCHAR
STARTCHAR numbersign
ENCODING 35
SWIDTH 528 0
DWIDTH 17 0
BBX 15 21 1 0
BITMAP
0E18
0E38
0E38
0E38
0E38
7FFE
7FFE
7FFE
1C30
1C70
1C70
1C70
FFFE
FFFE
FFFE
3870
3860
38E0
38E0
38E0
38E0
ENDCHAR
STARTCHAR dollar
ENCODING 36
SWIDTH 528 0
DWIDTH 17 0
BBX 14 29 1 -4
BITMAP
0380
0380
0380
0380
0FF0
1FF8
3FFC
7FF8
7C10
7C00
7C00
7E00
3F80
3FE0
0FF0
07F8
01FC
007C
003C
003C
307C
7FFC
FFF8
7FF8
1FE0
0380
0380
0380
0380
ENDCHAR
STARTCHAR percent
ENCODING 37
SWIDTH 857 0
DWIDTH 28 0
BBX 26 22 1 0
BITMAP
1E007000
3F807000
7FC0E000
F3C0E000
E1C1C000
E1C1C000
E1E38000
E1E30000
E1C70000
F1C63F00
F3CE7F80
7F8C7FC0
3F9CF1C0
0C18E1C0
0038E1C0
0030E1C0
0070E1C0
00E0E1C0
00E0F1C0
01C073C0
01C07F80
03803F00
ENDCHAR
STARTCHAR ampersand
ENCODING 38
SWIDTH 667 0
DWIDTH 22 0
BBX 20 22 1 0
BITMAP
03E000
0FF000
1FF800
1F7800
1E3C00
3C3C00
3C7800
1EF800
1FF000
1FE000
1FC0F0
3F81F0
7FC1E0
FFE3E0
F9FBC0
F0FFC0
F07F80
F83F80
FC7FF0
7FFFF0
3FFBF0
1FF0F0
ENDCHAR
STARTCHAR quotesingle
ENCODING 39
SWIDTH 300 0
DWIDTH 10 0
BBX 4 11 3 12
BITMAP
F0
F0
F0
F0
F0
F0
F0
F0
F0
F0
E0
ENDCHAR
STARTCHAR parenleft
ENCODING 40
SWIDTH 344 0
DWIDTH 11 0
BBX 8 30 2 -6
BITMAP
0E
0F
1E
1E
3C
3C
38
78
78
78
78
70
F0
F0
F0
F0
F0
F0
78
78
78
78
78
3C
3C
3C
1E
1E
0F
0C
ENDCHAR
STARTCHAR parenright
ENCODING 41
SWIDTH 344 0
DWIDTH 11 0
BBX 7 30 2 -6
BITMAP
60
F0
F0
78
78
38
3C
3C
3C
1C
1E
1E
1E
1E
1E
1E
1E
1E
1E
1E
1C
3C
3C
3C
78
78
70
F0
E0
20
ENDCHAR
STARTCHAR asterisk
ENCODING 42
SWIDTH 457 0
DWIDTH 15 0
BBX 13 12 1 12
BITMAP
0700
0700
0700
0700
7FF0
FFF8
7FF0
0F80
1FC0
1FC0
3DE0
18E0
ENDCHAR
STARTCHAR plus
ENCODING 43
SWIDTH 528 0
DWIDTH 17 0
BBX 15 16 1 3
BITMAP
03C0
03C0
03C0
03C0
03C0
03C0
FFFE
FFFE
FFFE
FFFE
03C0
03C0
03C0
03C0
03C0
03C0
ENDCHAR
STARTCHAR comma
ENCODING 44
SWIDTH 300 0
DWIDTH 10 0
BBX 6 12 2 -6
BITMAP
30
FC
FC
FC
FC
3C
1C
1C
3C
F8
F0
E0
ENDCHAR
STARTCHAR hyphen.dup1
ENCODING 45
SWIDTH 332 0
DWIDTH 11 0
BBX 9 3 1 7
BITMAP
FF80
FF80
FF80
ENDCHAR
STARTCHAR period
ENCODING 46
SWIDTH 300 0
DWIDTH 10 0
BBX 6 6 2 0
BITMAP
30
78
FC
FC
FC
78
ENDCHAR
STARTCHAR slash
ENCODING 47
SWIDTH 339 0
DWIDTH 11 0
BBX 9 28 1 -5
BITMAP
0380
0380
0780
0700
0700
0700
0F00
0E00
0E00
0E00
0E00
1C00
1C00
1C00
1C00
3C00
3800
3800
3800
7800
7000
7000
7000
7000
E000
E000
E000
E000
ENDCHAR
STARTCHAR zero
ENCODING 48
SWIDTH 528 0
DWIDTH 17 0
BBX 15 21 1 0
BITMAP
0FE0
1FF0
3FF8
3EFC
7C3C
783E
783E
F83E
F81E
F81E
F81E
F81E
F81E
F83E
783E
783E
7C3C
3EFC
3FF8
1FF0
0FE0
ENDCHAR
STARTCHAR one
ENCODING 49
SWIDTH 528 0
DWIDTH 17 0
BBX 14 21 2 0
BITMAP
07C0
1FC0
7FC0
7FC0
7FC0
07C0
07C0
07C0
07C0
07C0
07C0
07C0
07C0
07C0
07C0
07C0
07C0
FFFC
FFFC
FFFC
FFFC
ENDCHAR
STARTCHAR two
ENCODING 50
SWIDTH 528 0
DWIDTH 17 0
BBX 15 21 1 0
BITMAP
1FE0
3FF0
FFF8
FDF8
307C
007C
007C
007C
007C
00F8
00F8
01F0
03E0
07E0
0FC0
1F80
3F00
7FFE
FFFE
FFFE
FFFE
ENDCHAR
STARTCHAR three
ENCODING 51
SWIDTH 528 0
DWIDTH 17 0
BBX 15 21 1 0
BITMAP
1FE0
7FF8
FFF8
7DFC
307C
007C
007C
007C
07F8
0FF0
0FF0
0FF8
00FC
003E
003E
003E
607E
FFFC
FFFC
7FF8
1FE0
ENDCHAR
STARTCHAR four
ENCODING 52
SWIDTH 528 0
DWIDTH 17 0
BBX 16 21 1 0
BITMAP
01F8
03F8
03F8
07F8
07F8
0F78
1F78
1E78
3E78
3C78
7878
F878
FFFF
FFFF
FFFF
FFFF
0078
0078
0078
0078
0078
ENDCHAR
STARTCHAR five
ENCODING 53
SWIDTH 528 0
DWIDTH 17 0
BBX 15 21 1 0
BITMAP
3FFC
3FFC
3FFC
3FFC
3C00
3C00
3C00
3C00
3FF0
7FF8
7FFC
187C
003E
003E
003E
003E
607C
FFFC
FFF8
7FF8
1FE0
ENDCHAR
STARTCHAR six
ENCODING 54
SWIDTH 528 0
DWIDTH 17 0
BBX 15 21 1 0
BITMAP
07F8
0FFC
1FFE
3FFC
3E08
7C00
7800
7800
F9F0
FFFC
FFFC
FF7E
FC3E
781E
781E
781E
7C3E
3E7E
3FFC
1FF8
07F0
ENDCHAR
STARTCHAR seven
ENCODING 55
SWIDTH 528 0
DWIDTH 17 0
BBX 15 21 1 0
BITMAP
FFFE
FFFE
FFFE
FFFE
003C
0078
00F8
00F0
01E0
01E0
03E0
03C0
03C0
07C0
07C0
07C0
0780
0780
0F80
0F80
0F80
ENDCHAR
STARTCHAR eight
ENCODING 56
SWIDTH 528 0
DWIDTH 17 0
BBX 15 21 1 0
BITMAP
0FE0
1FF8
3FFC
7C7C
7C3C
783C
7C3C
3C3C
3F78
1FF0
0FF0
3FF8
78FC
783E
F83E
F81E
F83E
7C3E
7FFC
3FF8
0FF0
ENDCHAR
STARTCHAR nine
ENCODING 57
SWIDTH 528 0
DWIDTH 17 0
BBX 15 21 1 0
BITMAP
0FC0
3FF0
7FF8
7CFC
F87C
F83C
F83E
F83E
F83E
7CFE
7FFE
3FDE
1FBE
003E
003E
003C
107C
3FF8
7FF8
7FF0
1FC0
ENDCHAR
STARTCHAR colon
ENCODING 58
SWIDTH 300 0
DWIDTH 10 0
BBX 6 17 2 0
BITMAP
30
78
FC
FC
FC
78
00
00
00
00
00
30
78
FC
FC
FC
78
ENDCHAR
STARTCHAR semicolon
ENCODING 59
SWIDTH 300 0
DWIDTH 10 0
BBX 6 23 2 -6
BITMAP
30
78
FC
FC
FC
78
00
00
00
00
00
30
FC
FC
FC
FC
3C
1C
1C
3C
F8
F0
E0
ENDCHAR
STARTCHAR less
ENCODING 60
SWIDTH 528 0
DWIDTH 17 0
BBX 15 14 1 4
BITMAP
0006
003E
00FE
07FE
3FF0
FF80
FC00
FC00
FF80
3FF0
07FE
01FE
003E
0006
ENDCHAR
STARTCHAR equal
ENCODING 61
SWIDTH 528 0
DWIDTH 17 0
BBX 15 11 1 5
BITMAP
FFFE
FFFE
FFFE
0000
0000
0000
0000
FFFE
FFFE
FFFE
FFFE
ENDCHAR
STARTCHAR greater
ENCODING 62
SWIDTH 528 0
DWIDTH 17 0
BBX 15 14 1 4
BITMAP
E000
F800
FF00
FFE0
1FF8
03FE
007E
007E
03FE
1FF8
FFE0
FF00
FC00
E000
ENDCHAR
STARTCHAR question
ENCODING 63
SWIDTH 463 0
DWIDTH 15 0
BBX 13 22 1 0
BITMAP
1FE0
7FF0
FFF0
7DF8
10F8
00F8
00F8
01F0
03F0
03E0
07C0
0F80
0F80
0F00
0000
0000
0600
0F80
1F80
1F80
1F80
0F00
ENDCHAR
STARTCHAR at
ENCODING 64
SWIDTH 903 0
DWIDTH 30 0
BBX 26 28 2 -6
BITMAP
003FC000
00FFF800
03FFFC00
07E03E00
0F800F00
1E000780
3C000380
780C03C0
783EE1C0
707FE1C0
F0FFE1C0
E1E1C1C0
E1E1C1C0
E1C3C1C0
E1C3C1C0
E3C3C3C0
E1C7C380
E1FFCF80
E1FFFF00
F0FDFE00
70007000
78000000
3C000000
3E004000
1FC3C000
07FFC000
03FFC000
003C0000
ENDCHAR
STARTCHAR A
ENCODING 65
SWIDTH 573 0
DWIDTH 19 0
BBX 19 22 0 0
BITMAP
01F000
03F800
03F800
03F800
07FC00
07BC00
07BC00
0FBE00
0F3E00
0F1E00
1F1F00
1E1F00
1E1F00
3FFF00
3FFF80
3FFF80
3FFF80
7C07C0
7C07C0
7807C0
F803E0
F803E0
ENDCHAR
STARTCHAR B
ENCODING 66
SWIDTH 605 0
DWIDTH 20 0
BBX 16 22 3 0
BITMAP
FF00
FFF0
FFFC
FFFC
F0FE
F03E
F03E
F03E
F07C
FFF8
FFF0
FFFC
FFFE
F03E
F01F
F01F
F01F
F03F
FFFE
FFFE
FFF8
FFE0
ENDCHAR
STARTCHAR C
ENCODING 67
SWIDTH 582 0
DWIDTH 19 0
BBX 16 22 2 0
BITMAP
01F0
07FC
1FFF
3FFF
7F1E
7E04
FC00
F800
F800
F800
F800
F800
F800
F800
F800
F800
FC00
7E0E
3FFF
3FFF
1FFE
07FC
ENDCHAR
STARTCHAR D
ENCODING 68
SWIDTH 635 0
DWIDTH 21 0
BBX 16 22 3 0
BITMAP
FC00
FFE0
FFF8
FFFC
F3FE
F07E
F03F
F01F
F01F
F01F
F01F
F01F
F01F
F01F
F01F
F03F
F03E
F0FE
FFFC
FFF8
FFF0
FFC0
ENDCHAR
STARTCHAR E
ENCODING 69
SWIDTH 548 0
DWIDTH 18 0
BBX 13 22 3 0
BITMAP
FFF8
FFF8
FFF8
FFF8
FFF8
F000
F000
F000
F000
FFF0
FFF0
FFF0
FFF0
F000
F000
F000
F000
F000
FFF8
FFF8
FFF8
FFF8
ENDCHAR
STARTCHAR F
ENCODING 70
SWIDTH 524 0
DWIDTH 17 0
BBX 13 22 3 0
BITMAP
FFF8
FFF8
FFF8
FFF8
FFF8
F000
F000
F000
F000
F000
FFF0
FFF0
FFF0
FFF0
F000
F000
F000
F000
F000
F000
F000
F000
ENDCHAR
STARTCHAR G
ENCODING 71
SWIDTH 638 0
DWIDTH 21 0
BBX 17 22 2 0
BITMAP
01F800
07FE00
1FFF00
3FFF00
7F8E00
7E0200
FC0000
F80000
F80000
F80000
F87F80
F87F80
F87F80
F87F80
F80780
F80780
FC0780
7E0780
3FFF80
3FFF80
0FFF00
07FC00
ENDCHAR
STARTCHAR H
ENCODING 72
SWIDTH 674 0
DWIDTH 22 0
BBX 17 22 3 0
BITMAP
F00F80
F00F80
F00F80
F00F80
F00F80
F00F80
F00F80
F00F80
F00F80
FFFF80
FFFF80
FFFF80
FFFF80
F00F80
F00F80
F00F80
F00F80
F00F80
F00F80
F00F80
F00F80
F00F80
ENDCHAR
STARTCHAR I
ENCODING 73
SWIDTH 301 0
DWIDTH 10 0
BBX 4 22 3 0
BITMAP
F0
F0
F0
F0
F0
F0
F0
F0
F0
F0
F0
F0
F0
F0
F0
F0
F0
F0
F0
F0
F0
F0
ENDCHAR
STARTCHAR J
ENCODING 74
SWIDTH 509 0
DWIDTH 17 0
BBX 13 22 1 0
BITMAP
00F8
00F8
00F8
00F8
00F8
00F8
00F8
00F8
00F8
00F8
00F8
00F8
00F8
00F8
00F8
00F8
20F8
70F8
FFF8
FFF0
7FE0
3FC0
ENDCHAR
STARTCHAR K
ENCODING 75
SWIDTH 614 0
DWIDTH 20 0
BBX 17 22 3 0
BITMAP
F01F00
F03F00
F07E00
F07C00
F0F800
F1F000
F1F000
F3E000
F7C000
FFC000
FFE000
FFE000
FFF000
FDF000
FCF800
F8FC00
F07C00
F03E00
F03E00
F01F00
F01F80
F00F80
ENDCHAR
STARTCHAR L
ENCODING 76
SWIDTH 518 0
DWIDTH 17 0
BBX 13 22 3 0
BITMAP
F000
F000
F000
F000
F000
F000
F000
F000
F000
F000
F000
F000
F000
F000
F000
F000
F000
F000
FFF8
FFF8
FFF8
FFF8
ENDCHAR
STARTCHAR M
ENCODING 77
SWIDTH 762 0
DWIDTH 25 0
BBX 20 22 3 0
BITMAP
F803F0
F803F0
FC03F0
FC07F0
FC07F0
FE07F0
FE0FF0
EE0EF0
EF1EF0
FF1FF0
F71DF0
F7BDF0
F7BDF0
F3B9F0
F3F9F0
F3F9F0
F1F1F0
F1F1F0
F0E1F0
F0E1F0
F001F0
F001F0
ENDCHAR
STARTCHAR N
ENCODING 78
SWIDTH 665 0
DWIDTH 22 0
BBX 16 22 3 0
BITMAP
F80F
F80F
FC0F
FC0F
FE0F
FE0F
FF0F
FF0F
F78F
F78F
F7CF
F3CF
F3EF
F1EF
F1FF
F0FF
F07F
F07F
F03F
F03F
F01F
F01F
ENDCHAR
STARTCHAR O
ENCODING 79
SWIDTH 684 0
DWIDTH 23 0
BBX 19 22 2 0
BITMAP
03F000
0FFE00
1FFF00
3FFF80
7F3F80
7C0FC0
FC07C0
F807E0
F803E0
F803E0
F803E0
F803E0
F803E0
F803E0
F803E0
F807C0
FC07C0
7E0FC0
3FFF80
3FFF00
1FFE00
07FC00
ENDCHAR
STARTCHAR P
ENCODING 80
SWIDTH 596 0
DWIDTH 20 0
BBX 15 22 3 0
BITMAP
FF00
FFF0
FFFC
FFFC
F0FE
F03E
F01E
F01E
F01E
F03E
F07E
FFFC
FFF8
FFF0
FF80
F000
F000
F000
F000
F000
F000
F000
ENDCHAR
STARTCHAR Q
ENCODING 81
SWIDTH 684 0
DWIDTH 23 0
BBX 20 28 2 -6
BITMAP
03F000
0FFE00
1FFF00
3FFF80
7F3F80
7C0FC0
FC07C0
F807E0
F803E0
F803E0
F803E0
F803E0
F803E0
F803E0
F803E0
F807C0
FC07C0
7E0FC0
3FFF80
3FFF00
1FFE00
07FC00
01F800
00FC00
007FF0
003FF0
001FF0
0007F0
ENDCHAR
STARTCHAR R
ENCODING 82
SWIDTH 613 0
DWIDTH 20 0
BBX 16 22 3 0
BITMAP
FF00
FFF0
FFFC
FFFE
F07E
F03E
F01F
F01F
F01E
F03E
FFFE
FFFC
FFF8
FFF0
F1F0
F0F8
F0FC
F07C
F07E
F03E
F03F
F01F
ENDCHAR
STARTCHAR S
ENCODING 83
SWIDTH 556 0
DWIDTH 18 0
BBX 16 22 1 0
BITMAP
03E0
0FFC
1FFE
3FFE
7E3C
7C0C
7C00
7E00
7F80
3FE0
1FF8
0FFE
03FE
00FF
003F
001F
301F
381F
7FFF
FFFE
3FFC
0FF0
ENDCHAR
STARTCHAR T
ENCODING 84
SWIDTH 556 0
DWIDTH 18 0
BBX 17 22 1 0
BITMAP
FFFF80
FFFF80
FFFF80
FFFF80
FFFF80
03E000
03E000
03E000
03E000
03E000
03E000
03E000
03E000
03E000
03E000
03E000
03E000
03E000
03E000
03E000
03E000
03E000
ENDCHAR
STARTCHAR U
ENCODING 85
SWIDTH 665 0
DWIDTH 22 0
BBX 18 22 2 0
BITMAP
F807C0
F807C0
F807C0
F807C0
F807C0
F807C0
F807C0
F807C0
F807C0
F807C0
F807C0
F807C0
F80780
F80780
780780
7C0F80
7C0F80
7E1F80
3FFF00
3FFF00
1FFE00
07F800
ENDCHAR
STARTCHAR V
ENCODING 86
SWIDTH 556 0
DWIDTH 18 0
BBX 19 22 0 0
BITMAP
F803E0
F807C0
F807C0
7C07C0
7C0780
7C0F80
3C0F80
3E0F00
3E0F00
3E1F00
1E1F00
1F1E00
1F1E00
0F3E00
0F3C00
0FBC00
07BC00
07F800
07F800
03F800
03F800
03F000
ENDCHAR
STARTCHAR W
ENCODING 87
SWIDTH 813 0
DWIDTH 27 0
BBX 26 22 0 0
BITMAP
F80F03C0
7C1F03C0
7C1F07C0
7C1F07C0
7C1F87C0
7C3F87C0
3C3F8780
3C3B8780
3E3B8780
3E7BCF80
3E7BCF80
1E7BCF00
1E73CF00
1E71EF00
1EF1EF00
1FF1EF00
1FF1FF00
0FE1FE00
0FE0FE00
0FE0FE00
0FE0FE00
0FE0FE00
ENDCHAR
STARTCHAR X
ENCODING 88
SWIDTH 567 0
DWIDTH 19 0
BBX 17 22 1 0
BITMAP
F80F80
FC1F00
7C1F00
7E1E00
3E3E00
3E3C00
1F7C00
1F7800
0FF800
07F000
07F000
07F000
0FF000
0FF800
1FF800
1E7C00
3E7C00
3E3E00
7C3E00
7C1F00
F81F80
F80F80
ENDCHAR
STARTCHAR Y
ENCODING 89
SWIDTH 525 0
DWIDTH 17 0
BBX 18 22 0 0
BITMAP
F80FC0
F80F80
7C0F80
7C1F00
3E1F00
3E1E00
1E3E00
1F3C00
1F7C00
0F7800
0FF800
07F000
07F000
03F000
03E000
03E000
03E000
03E000
03E000
03E000
03E000
03E000
ENDCHAR
STARTCHAR Z
ENCODING 90
SWIDTH 541 0
DWIDTH 18 0
BBX 16 22 1 0
BITMAP
7FFF
7FFF
7FFF
7FFF
7FFE
007C
00FC
00F8
01F0
03F0
03E0
07C0
0FC0
0F80
1F00
1F00
3E00
7C00
7FFF
FFFF
FFFF
FFFF
ENDCHAR
STARTCHAR bracketleft
ENCODING 91
SWIDTH 344 0
DWIDTH 11 0
BBX 7 28 3 -5
BITMAP
FE
FE
F0
F0
F0
F0
F0
F0
F0
F0
F0
F0
F0
F0
F0
F0
F0
F0
F0
F0
F0
F0
F0
F0
F0
FE
FE
FE
ENDCHAR
STARTCHAR backslash
ENCODING 92
SWIDTH 339 0
DWIDTH 11 0
BBX 10 28 1 -5
BITMAP
E000
F000
7000
7000
7000
7000
3800
3800
3800
3800
3C00
1C00
1C00
1C00
1E00
0E00
0E00
0E00
0E00
0700
0700
0700
0700
0780
0380
0380
0380
03C0
ENDCHAR
STARTCHAR bracketright
ENCODING 93
SWIDTH 344 0
DWIDTH 11 0
BBX 6 28 2 -5
BITMAP
FC
FC
1C
1C
1C
1C
1C
1C
1C
1C
1C
1C
1C
1C
1C
1C
1C
1C
1C
1C
1C
1C
1C
1C
1C
FC
FC
FC
ENDCHAR
STARTCHAR asciicircum
ENCODING 94
SWIDTH 528 0
DWIDTH 17 0
BBX 14 13 2 9
BITMAP
0780
0F80
0FC0
1FC0
1FC0
1DE0
3CE0
3CF0
78F0
7870
7878
F078
F03C
ENDCHAR
STARTCHAR underscore
ENCODING 95
SWIDTH 500 0
DWIDTH 17 0
BBX 16 3 0 -5
BITMAP
FFFF
FFFF
FFFF
ENDCHAR
STARTCHAR grave
ENCODING 96
SWIDTH 555 0
DWIDTH 18 0
BBX 8 8 3 19
BITMAP
30
78
F8
7C
3E
1F
0E
04
ENDCHAR
STARTCHAR a
ENCODING 97
SWIDTH 527 0
DWIDTH 17 0
BBX 14 17 1 0
BITMAP
03C0
1FF0
7FF8
3FFC
387C
007C
007C
07FC
3FFC
7FBC
7C3C
F83C
F87C
FDFC
7FFC
7FFC
3F3C
ENDCHAR
STARTCHAR b
ENCODING 98
SWIDTH 573 0
DWIDTH 19 0
BBX 16 23 2 0
BITMAP
F800
F800
F800
F800
F800
F800
F8E0
FBF8
FFFC
FFFE
FE7E
F83E
F83E
F81F
F81F
F81F
F83E
F83E
F83E
FFFE
FFFC
F7F8
F3F0
ENDCHAR
STARTCHAR c
ENCODING 99
SWIDTH 467 0
DWIDTH 15 0
BBX 14 17 1 0
BITMAP
01E0
0FF8
1FF8
3FF0
7E30
7C00
FC00
F800
F800
F800
F800
FC00
7C10
7FF8
3FF8
1FFC
0FF0
ENDCHAR
STARTCHAR d
ENCODING 100
SWIDTH 573 0
DWIDTH 19 0
BBX 16 23 1 0
BITMAP
001F
001F
001F
001F
001F
001F
071F
1FFF
3FFF
3FFF
7E3F
7C1F
FC1F
F81F
F81F
F81F
F81F
7C1F
7C3F
7FFF
3FFF
3FFF
0FCF
ENDCHAR
STARTCHAR e
ENCODING 101
SWIDTH 518 0
DWIDTH 17 0
BBX 15 17 1 0
BITMAP
03C0
0FF0
1FF8
3FFC
7C3C
783E
F81E
FFFE
FFFE
FFFE
F800
F800
7C00
7F38
3FFC
1FFC
07F8
ENDCHAR
STARTCHAR f
ENCODING 102
SWIDTH 341 0
DWIDTH 11 0
BBX 11 23 1 0
BITMAP
0FE0
1FE0
1FE0
3F00
3E00
3E00
3E00
FFC0
FFC0
FFC0
3E00
3E00
3E00
3E00
3E00
3E00
3E00
3E00
3E00
3E00
3E00
3E00
3E00
ENDCHAR
STARTCHAR g
ENCODING 103
SWIDTH 534 0
DWIDTH 18 0
BBX 16 24 1 -7
BITMAP
0780
1FFF
3FFF
7FFF
7878
783C
783C
787C
7C78
3FF8
1FF0
3FC0
7800
7800
7FFC
3FFE
3FFF
7FFF
F01F
F01F
F83E
7FFE
7FF8
1FE0
ENDCHAR
STARTCHAR h
ENCODING 104
SWIDTH 571 0
DWIDTH 19 0
BBX 15 23 2 0
BITMAP
F800
F800
F800
F800
F800
F800
F8E0
FBF8
FFFC
FFFC
FF7E
F83E
F83E
F83E
F83E
F83E
F83E
F83E
F83E
F83E
F83E
F83E
F83E
ENDCHAR
STARTCHAR i
ENCODING 105
SWIDTH 276 0
DWIDTH 9 0
BBX 5 24 2 0
BITMAP
70
F8
F8
F8
78
00
00
00
F8
F8
F8
F8
F8
F8
F8
F8
F8
F8
F8
F8
F8
F8
F8
F8
ENDCHAR
STARTCHAR j
ENCODING 106
SWIDTH 278 0
DWIDTH 9 0
BBX 9 30 -2 -6
BITMAP
0700
0F80
0F80
0F80
0780
0000
0000
0000
0F80
0F80
0F80
0F80
0F80
0F80
0F80
0F80
0F80
0F80
0F80
0F80
0F80
0F80
0F80
0F80
0F80
0F80
1F80
7F00
7F00
FE00
ENDCHAR
STARTCHAR k
ENCODING 107
SWIDTH 548 0
DWIDTH 18 0
BBX 16 23 2 0
BITMAP
F800
F800
F800
F800
F800
F800
F800
F87E
F87C
F8F8
F9F0
FBE0
FBC0
FFC0
FFC0
FFE0
FFF0
FDF0
F8F8
F87C
F87C
F83E
F83F
ENDCHAR
STARTCHAR l
ENCODING 108
SWIDTH 286 0
DWIDTH 9 0
BBX 7 23 2 0
BITMAP
F8
F8
F8
F8
F8
F8
F8
F8
F8
F8
F8
F8
F8
F8
F8
F8
F8
F8
F8
FC
FE
7E
3E
ENDCHAR
STARTCHAR m
ENCODING 109
SWIDTH 857 0
DWIDTH 28 0
BBX 24 17 2 0
BITMAP
00E078
F3F8FE
F7FFFE
FFFFFF
FE7FBF
F83E1F
F83E1F
F83E1F
F83E1F
F83E1F
F83E1F
F83E1F
F83E1F
F83E1F
F83E1F
F83E1F
F83E1F
ENDCHAR
STARTCHAR n
ENCODING 110
SWIDTH 572 0
DWIDTH 19 0
BBX 15 17 2 0
BITMAP
00E0
F3F8
F7FC
FFFC
FF7E
F83E
F83E
F83E
F83E
F83E
F83E
F83E
F83E
F83E
F83E
F83E
F83E
ENDCHAR
STARTCHAR o
ENCODING 111
SWIDTH 555 0
DWIDTH 18 0
BBX 16 17 1 0
BITMAP
03C0
0FF8
1FFC
3FFE
7E7E
7C3F
F81F
F81F
F81F
F81F
F81F
7C1F
7C3E
7FFE
3FFC
1FF8
0FF0
ENDCHAR
STARTCHAR p
ENCODING 112
SWIDTH 573 0
DWIDTH 19 0
BBX 16 23 2 -6
BITMAP
00E0
F3F8
FFFC
FFFE
FE7E
F83E
F83E
F81F
F81F
F81F
F83F
F83E
F83E
FFFE
FFFC
FFF8
FBF0
F800
F800
F800
F800
F800
F800
ENDCHAR
STARTCHAR q
ENCODING 113
SWIDTH 573 0
DWIDTH 19 0
BBX 16 23 1 -6
BITMAP
0700
1FEF
3FFF
3FFF
7E3F
7C1F
FC1F
F81F
F81F
F81F
F81F
7C1F
7C3F
7FFF
3FFF
3FFF
0FDF
001F
001F
001F
001F
001F
001F
ENDCHAR
STARTCHAR r
ENCODING 114
SWIDTH 398 0
DWIDTH 13 0
BBX 11 17 2 0
BITMAP
00E0
F3E0
F7E0
FFE0
FFC0
FC00
FC00
F800
F800
F800
F800
F800
F800
F800
F800
F800
F800
ENDCHAR
STARTCHAR s
ENCODING 115
SWIDTH 443 0
DWIDTH 15 0
BBX 13 17 1 0
BITMAP
0780
1FE0
7FF0
7FF0
7860
7800
7C00
7F80
3FE0
1FF0
03F0
00F8
00F8
79F0
FFF0
FFE0
3FC0
ENDCHAR
STARTCHAR t
ENCODING 116
SWIDTH 383 0
DWIDTH 13 0
BBX 11 21 1 0
BITMAP
1E00
3E00
3E00
3E00
3E00
FFE0
FFE0
FFE0
3E00
3E00
3E00
3E00
3E00
3E00
3E00
3E00
3E00
3F00
3FE0
1FE0
0FE0
ENDCHAR
STARTCHAR u
ENCODING 117
SWIDTH 568 0
DWIDTH 19 0
BBX 15 16 2 0
BITMAP
F83E
F83E
F83E
F83E
F83E
F83E
F83E
F83E
F83E
F83E
F83E
F87E
FFFE
7FFE
7FBE
3F1E
ENDCHAR
STARTCHAR v
ENCODING 118
SWIDTH 523 0
DWIDTH 17 0
BBX 16 16 1 0
BITMAP
F81F
F81E
F83E
783E
7C3C
7C3C
3C7C
3C78
3E78
1EF8
1EF0
1EF0
0FF0
0FE0
0FE0
07E0
ENDCHAR
STARTCHAR w
ENCODING 119
SWIDTH 776 0
DWIDTH 26 0
BBX 24 16 1 0
BITMAP
F83C1F
F87C1E
787E1E
787E1E
7C7E3E
7CFE3C
3CEF3C
3CEF3C
3CE73C
3FE778
1FE7F8
1FC7F8
1FC7F8
1FC3F8
0FC3F0
0FC3F0
ENDCHAR
STARTCHAR x
ENCODING 120
SWIDTH 514 0
DWIDTH 17 0
BBX 15 16 1 0
BITMAP
F83E
7C7C
7E7C
3E78
1FF0
1FF0
0FE0
0FE0
0FE0
1FE0
1FF0
3EF8
3CF8
7C7C
F87E
F83E
ENDCHAR
STARTCHAR y
ENCODING 121
SWIDTH 521 0
DWIDTH 17 0
BBX 16 22 1 -6
BITMAP
F81F
F81E
783E
7C3C
7C3C
3C7C
3E78
1E78
1E78
1EF0
0FF0
0FF0
0FE0
07E0
07E0
03C0
07C0
07C0
5F80
7F80
7F00
7E00
ENDCHAR
STARTCHAR z
ENCODING 122
SWIDTH 460 0
DWIDTH 15 0
BBX 13 16 1 0
BITMAP
7FF8
7FF8
7FF8
01F0
03F0
03E0
07C0
0FC0
0F80
1F00
3E00
3E00
7FF8
FFF8
FFF8
FFF8
ENDCHAR
STARTCHAR braceleft
ENCODING 123
SWIDTH 344 0
DWIDTH 11 0
BBX 9 28 1 -5
BITMAP
0F80
1F80
1E00
1E00
1C00
1C00
1C00
1E00
1E00
1E00
1E00
3C00
FC00
F800
F800
7C00
3E00
1E00
1E00
1E00
1E00
1C00
1C00
1C00
1E00
1F80
1F80
0F80
ENDCHAR
STARTCHAR bar
ENCODING 124
SWIDTH 268 0
DWIDTH 9 0
BBX 3 33 3 -8
BITMAP
E0
E0
E0
E0
E0
E0
E0
E0
E0
E0
E0
E0
E0
E0
E0
E0
E0
E0
E0
E0
E0
E0
E0
E0
E0
E0
E0
E0
E0
E0
E0
E0
E0
ENDCHAR
STARTCHAR braceright
ENCODING 125
SWIDTH 344 0
DWIDTH 11 0
BBX 8 28 2 -5
BITMAP
F8
F8
7C
3C
3C
3C
3C
3C
3C
38
3C
3C
3F
0F
1F
3E
3C
3C
38
3C
3C
3C
3C
3C
3C
FC
F8
F0
ENDCHAR
STARTCHAR asciitilde
ENCODING 126
SWIDTH 528 0
DWIDTH 17 0
BBX 15 6 1 8
BITMAP
1E00
3F0C
7FDE
FFFE
61FC
00F8
ENDCHAR
ENDFONT
